<?xml version="1.0" encoding="UTF-8"?>
<!DOCTYPE svg PUBLIC "-//W3C//DTD SVG 1.1//EN" "http://www.w3.org/Graphics/SVG/1.1/DTD/svg11.dtd">
<!-- Creator: CorelDRAW 2018 (64-Bit) -->
<svg xmlns="http://www.w3.org/2000/svg" xml:space="preserve" width="16px" height="16px" version="1.1" style="shape-rendering:geometricPrecision; text-rendering:geometricPrecision; image-rendering:optimizeQuality; fill-rule:evenodd; clip-rule:evenodd"
viewBox="0 0 0.3 0.3"
 xmlns:xlink="http://www.w3.org/1999/xlink">
 <defs>
  <style type="text/css">
   <![CDATA[
    .fil2 {fill:#7E98F6}
    .fil6 {fill:url(#id0)}
    .fil4 {fill:url(#id1)}
    .fil5 {fill:url(#id2)}
    .fil3 {fill:url(#id3)}
    .fil0 {fill:url(#id4)}
    .fil1 {fill:url(#id5)}
   ]]>
  </style>
  <linearGradient id="id0" gradientUnits="userSpaceOnUse" x1="0.17" y1="0.22" x2="0.18" y2="0.23">
   <stop offset="0" style="stop-opacity:1; stop-color:#3887FE"/>
   <stop offset="1" style="stop-opacity:1; stop-color:#043BA7"/>
  </linearGradient>
  <linearGradient id="id1" gradientUnits="userSpaceOnUse" xlink:href="#id0" x1="0.17" y1="0.07" x2="0.18" y2="0.08">
  </linearGradient>
  <linearGradient id="id2" gradientUnits="userSpaceOnUse" xlink:href="#id0" x1="0.14" y1="0.22" x2="0.15" y2="0.23">
  </linearGradient>
  <linearGradient id="id3" gradientUnits="userSpaceOnUse" xlink:href="#id0" x1="0.14" y1="0.07" x2="0.15" y2="0.08">
  </linearGradient>
  <linearGradient id="id4" gradientUnits="userSpaceOnUse" x1="-0.17" y1="-0.19" x2="0.29" y2="0.32">
   <stop offset="0" style="stop-opacity:1; stop-color:#FEFEFE"/>
   <stop offset="0.760784" style="stop-opacity:1; stop-color:#F2F3F3"/>
   <stop offset="1" style="stop-opacity:1; stop-color:#E6E7E8"/>
  </linearGradient>
  <linearGradient id="id5" gradientUnits="userSpaceOnUse" xlink:href="#id0" x1="0.16" y1="0.12" x2="0.2" y2="0.22">
  </linearGradient>
 </defs>
 <g id="Layer_x0020_1">
  <metadata id="CorelCorpID_0Corel-Layer"/>
  <g id="_2334876311584">
   <rect class="fil0" width="0.3" height="0.3" rx="0.1" ry="0.1"/>
   <g>
    <polygon class="fil1" points="0.16,0.12 0.06,0.22 0.2,0.22 0.2,0.18 0.15,0.18 0.24,0.08 0.11,0.08 0.11,0.12 "/>
    <path class="fil2" d="M0.1 0.03l-0.05 0.05c0,0.01 -0.01,0.01 -0.01,0.02 0,0 0,0.01 0,0.02l0 0.01 -0.03 0 0.06 0.07 0.06 -0.07 -0.03 0 0 -0.1z"/>
    <g>
     <g>
      <polygon class="fil3" points="0.15,0.07 0.14,0.07 0.14,0.08 0.15,0.08 "/>
      <polygon class="fil4" points="0.18,0.07 0.17,0.07 0.17,0.08 0.18,0.08 "/>
     </g>
     <g>
      <polygon class="fil5" points="0.15,0.22 0.14,0.22 0.14,0.23 0.15,0.23 "/>
      <polygon class="fil6" points="0.17,0.22 0.17,0.23 0.18,0.23 0.18,0.22 "/>
     </g>
    </g>
    <path class="fil2" d="M0.27 0.27l-0.05 -0.05c-0.01,0 -0.01,-0.01 -0.01,-0.01 0,-0.01 0,-0.02 0,-0.02l0 -0.02 -0.03 0 0.06 -0.06 0.05 0.06 -0.02 0 0 0.1z"/>
   </g>
  </g>
 </g>
</svg>
